<?xml version="1.0" standalone="no"?>
<!DOCTYPE svg PUBLIC "-//W3C//DTD SVG 20010904//EN"
 "http://www.w3.org/TR/2001/REC-SVG-20010904/DTD/svg10.dtd">
<svg version="1.0" xmlns="http://www.w3.org/2000/svg"
 width="100.000000pt" height="100.000000pt" viewBox="0 0 100.000000 100.000000"
 preserveAspectRatio="xMidYMid meet">

<g transform="translate(0.000000,100.000000) scale(0.100000,-0.100000)"
fill="#000000" stroke="none">
<path d="M560 705 c-5 -6 -5 -17 0 -25 6 -8 10 -23 10 -32 0 -16 -10 -18 -74
-18 -76 0 -101 11 -69 29 28 15 2 33 -56 39 -47 4 -51 3 -51 -17 0 -14 6 -21
18 -21 42 0 52 -38 26 -94 -14 -28 -23 -35 -57 -39 -27 -4 -50 -16 -71 -36
-26 -27 -31 -39 -31 -81 0 -43 5 -54 33 -82 28 -28 39 -33 81 -33 53 0 94 27
112 73 6 17 16 22 42 22 32 0 38 6 85 77 40 60 53 73 58 60 4 -12 -2 -27 -17
-43 -19 -20 -24 -37 -24 -75 0 -42 5 -53 33 -81 47 -48 117 -48 164 0 28 28
33 39 33 82 0 42 -5 54 -30 80 -20 20 -46 33 -74 38 -41 7 -44 10 -67 66 -13
33 -24 65 -24 73 0 7 -6 13 -14 13 -8 0 -18 5 -21 10 -4 6 19 10 62 10 63 -1
67 -2 48 -16 -20 -15 -20 -15 0 -12 13 2 21 -4 23 -17 3 -16 1 -17 -9 -8 -15
15 -49 -1 -49 -22 0 -20 34 -19 54 1 19 19 21 58 4 72 -18 14 -138 20 -148 7z
m135 -76 c-8 -12 -35 -12 -35 0 0 11 22 20 33 14 4 -2 5 -9 2 -14z m-105 -36
c0 -11 -82 -133 -90 -133 -7 0 -60 117 -60 133 0 4 34 7 75 7 41 0 75 -3 75
-7z m-130 -160 c0 -23 -19 -14 -26 11 -3 13 -16 34 -29 46 -21 19 -22 25 -12
48 11 25 12 24 39 -34 15 -32 27 -65 28 -71z m-130 67 c0 -6 -7 -27 -15 -47
-24 -56 -21 -63 30 -63 51 0 56 -10 19 -39 -15 -12 -21 -21 -15 -21 7 0 23 12
37 27 13 14 27 23 30 20 4 -3 -7 -20 -24 -37 -24 -24 -39 -30 -72 -30 -91 0
-135 106 -71 171 29 28 81 40 81 19z m431 -19 c88 -88 -42 -229 -136 -148 -36
31 -46 102 -18 136 l19 23 12 -24 c6 -12 16 -35 22 -50 5 -16 17 -28 26 -28
17 0 16 13 -2 79 -6 21 -4 23 17 16 13 -3 34 -18 47 -31 14 -16 22 -20 22 -11
0 21 -35 48 -72 57 l-33 8 33 1 c25 1 41 -7 63 -28z m-355 -17 c15 -22 15 -27
3 -35 -19 -12 -59 -11 -59 1 0 16 23 60 31 60 5 0 16 -12 25 -26z"/>
<path d="M281 486 c-26 -14 -50 -51 -51 -77 0 -8 7 -24 15 -35 14 -18 14 -17
5 9 -13 35 5 77 38 92 12 5 22 13 22 17 0 10 0 10 -29 -6z"/>
<path d="M280 336 c28 -17 50 -21 35 -7 -6 5 -21 12 -35 15 l-25 7 25 -15z"/>
<path d="M611 452 c-6 -12 -11 -29 -10 -39 0 -11 6 -6 15 16 16 37 12 55 -5
23z"/>
<path d="M762 391 c-7 -19 -10 -36 -8 -38 8 -8 27 38 24 55 -3 11 -8 5 -16
-17z"/>
<path d="M606 375 c4 -8 10 -15 15 -15 4 0 6 7 3 15 -4 8 -10 15 -15 15 -4 0
-6 -7 -3 -15z"/>
<path d="M644 336 c22 -18 64 -21 86 -6 11 8 6 10 -20 8 -19 -1 -46 2 -60 6
-24 7 -24 6 -6 -8z"/>
<path d="M382 450 c7 -10 14 -18 15 -16 6 6 -9 36 -18 36 -5 0 -4 -9 3 -20z"/>
</g>
</svg>
